<svg width="990" height="683" xmlns="http://www.w3.org/2000/svg" xmlns:xlink="http://www.w3.org/1999/xlink" xml:space="preserve" overflow="hidden"><g transform="translate(-2131 -1127)"><g><path d="M2402.28 1132.8 2516.71 1132.8 2516.71 1242.8 2402.28 1242.8Z" fill="#F2F2F2" fill-rule="evenodd" fill-opacity="1"/><path d="M2516.71 1132.8 2631.14 1132.8 2631.14 1242.8 2516.71 1242.8Z" fill="#D9D9D9" fill-rule="evenodd" fill-opacity="1"/><path d="M2402.28 1242.8 2516.71 1242.8 2516.71 1352.8 2402.28 1352.8Z" fill="#767171" fill-rule="evenodd" fill-opacity="1"/><path d="M2516.71 1242.8 2631.14 1242.8 2631.14 1352.8 2516.71 1352.8Z" fill="#767171" fill-rule="evenodd" fill-opacity="1"/><path d="M2631.14 1242.8 2745.57 1242.8 2745.57 1352.8 2631.14 1352.8Z" fill="#F2F2F2" fill-rule="evenodd" fill-opacity="1"/><path d="M2402.28 1352.8 2516.71 1352.8 2516.71 1462.8 2402.28 1462.8Z" fill="#A6A6A6" fill-rule="evenodd" fill-opacity="1"/><path d="M2516.71 1352.8 2631.14 1352.8 2631.14 1462.8 2516.71 1462.8Z" fill="#D9D9D9" fill-rule="evenodd" fill-opacity="1"/><path d="M2631.14 1352.8 2745.57 1352.8 2745.57 1462.8 2631.14 1462.8Z" fill="#404040" fill-rule="evenodd" fill-opacity="1"/><path d="M2745.57 1352.8 2860 1352.8 2860 1462.8 2745.57 1462.8Z" fill="#7F7F7F" fill-rule="evenodd" fill-opacity="1"/><path d="M2402.28 1462.8 2516.71 1462.8 2516.71 1572.8 2402.28 1572.8Z" fill="#D9D9D9" fill-rule="evenodd" fill-opacity="1"/><path d="M2516.71 1462.8 2631.14 1462.8 2631.14 1572.8 2516.71 1572.8Z" fill="#BFBFBF" fill-rule="evenodd" fill-opacity="1"/><path d="M2631.14 1462.8 2745.57 1462.8 2745.57 1572.8 2631.14 1572.8Z" fill="#BFBFBF" fill-rule="evenodd" fill-opacity="1"/><path d="M2745.57 1462.8 2860 1462.8 2860 1572.8 2745.57 1572.8Z" fill="#F2F2F2" fill-rule="evenodd" fill-opacity="1"/><path d="M2516.71 1132.8 2516.71 1572.8" stroke="#FFFFFF" stroke-width="2.29167" stroke-linecap="butt" stroke-linejoin="round" stroke-miterlimit="10" stroke-opacity="1" fill="none" fill-rule="evenodd"/><path d="M2631.14 1242.8 2631.14 1572.8" stroke="#FFFFFF" stroke-width="2.29167" stroke-linecap="butt" stroke-linejoin="round" stroke-miterlimit="10" stroke-opacity="1" fill="none" fill-rule="evenodd"/><path d="M2745.57 1242.8 2745.57 1572.8" stroke="#FFFFFF" stroke-width="2.29167" stroke-linecap="butt" stroke-linejoin="round" stroke-miterlimit="10" stroke-opacity="1" fill="none" fill-rule="evenodd"/><path d="M2402.28 1352.8 2746.72 1352.8" stroke="#FFFFFF" stroke-width="2.29167" stroke-linecap="butt" stroke-linejoin="round" stroke-miterlimit="10" stroke-opacity="1" fill="none" fill-rule="evenodd"/><path d="M2402.28 1462.8 2860 1462.8" stroke="#FFFFFF" stroke-width="2.29167" stroke-linecap="butt" stroke-linejoin="round" stroke-miterlimit="10" stroke-opacity="1" fill="none" fill-rule="evenodd"/><text fill="#000000" fill-opacity="1" font-family="Miriam Fixed,Miriam Fixed_MSFontService,sans-serif" font-style="normal" font-variant="normal" font-weight="400" font-stretch="normal" font-size="110" text-anchor="start" direction="ltr" writing-mode="lr-tb" unicode-bidi="normal" text-decoration="none" transform="matrix(1 0 0 1 2198.38 1708)">Lang</text><text fill="#000000" fill-opacity="1" font-family="Miriam Fixed,Miriam Fixed_MSFontService,sans-serif" font-style="normal" font-variant="normal" font-weight="400" font-stretch="normal" font-size="110" text-anchor="start" direction="ltr" writing-mode="lr-tb" unicode-bidi="normal" text-decoration="none" transform="matrix(1 0 0 1 2461.92 1708)">-</text><text fill="#000000" fill-opacity="1" font-family="Miriam Fixed,Miriam Fixed_MSFontService,sans-serif" font-style="normal" font-variant="normal" font-weight="400" font-stretch="normal" font-size="110" text-anchor="start" direction="ltr" writing-mode="lr-tb" unicode-bidi="normal" text-decoration="none" transform="matrix(1 0 0 1 2527.81 1708)">Boundary</text></g></g></svg>